<svg xmlns="http://www.w3.org/2000/svg" viewBox="0 0 342.832 342.832"><path d="M276.326 232.386a7.836 7.836 0 00-5.645-2.509h-52.245v-125.91c0-4.702-1.045-9.927-5.224-9.927H129.62a12.016 12.016 0 00-10.449 9.927v125.91h-47.02a7.836 7.836 0 00-5.224 13.584l99.265 97.176a7.314 7.314 0 0010.449 0l99.265-97.176a7.837 7.837 0 00.42-11.075z"/><path d="M129.62 78.367h83.592a7.837 7.837 0 000-15.674H129.62a7.837 7.837 0 000 15.674z"/><path d="M129.62 47.02h83.592a7.837 7.837 0 000-15.674H129.62a7.837 7.837 0 000 15.674z"/><path d="M129.62 15.673h83.592a7.837 7.837 0 000-15.674H129.62a7.837 7.837 0 000 15.674z"/></svg>