<svg xmlns="http://www.w3.org/2000/svg" version="1.0" viewBox="0 0 512 512">
    <path d="M210.2 14.6c-1.8.9-4.3 3.1-5.5 4.8l-2.2 3.1-.3 55.7-.2 55.8h-66.8c-44 0-68.9.4-72.7 1.1-15.9 2.9-26.9 14.2-29.5 30-.6 4.2-1 51.7-1 136.1v129.6l-9.8.4c-8.7.3-10.3.6-13.9 3-2.5 1.6-4.9 4.4-6.2 7.2C0 445.6-.1 447 .2 466.3c.3 20.2.3 20.4 3 24.4 1.6 2.4 4.4 4.9 7 6.2l4.4 2.1h114.7c113.4 0 114.7 0 116.7-2 3-3 2.7-8.3-.6-10.9-2.7-2.1-2.9-2.1-115.3-2.1-86.3 0-113-.3-113.9-1.2-1.7-1.7-1.7-33.9 0-35.6.9-.9 22.5-1.2 91.2-1.2h90.1l3.4 9.1c4.2 11.3 7.8 15.2 15.1 16.8 6.9 1.5 73.1 1.5 80 0 7.3-1.6 10.9-5.5 15.1-16.8l3.4-9.1h90.1c68.7 0 90.3.3 91.2 1.2 1.7 1.7 1.7 33.9 0 35.6-.9.9-27.6 1.2-113.9 1.2-112.4 0-112.6 0-115.3 2.1-3.3 2.6-3.6 7.9-.6 10.9 2 2 3.3 2 116.7 2h114.7l4.4-2.1c2.6-1.3 5.4-3.8 7-6.2 2.7-4 2.7-4.3 3-23.1.4-20.8-.2-24.6-4.5-29.7-4.2-4.9-9.5-6.9-19-6.9H480V301.2c0-84.3-.4-131.9-1-136.1-2.6-15.8-13.6-27.1-29.5-30-3.8-.7-28.8-1.1-72.7-1.1H310V79.4c0-60.3.1-59-6.4-63.7-3.1-2.2-3.4-2.2-46.6-2.4-38.6-.3-43.9-.1-46.8 1.3zM295 96.9v69l2.4 2.8c2.3 2.7 2.9 2.8 13.3 3.3l10.8.5-11.7 12.2c-9.4 9.7-11.8 12.8-11.8 15 .1 5.2 5.2 8.9 9.8 7.2 1.2-.5 7.5-6.3 13.9-12.9l11.5-12H433v35c0 23.9.4 35.7 1.1 37.4 1.6 3.5 6.3 5 9.9 3.1 1.5-.8 3-2.2 3.4-3 .3-.9.6-18.9.6-39.9 0-38.2 0-38.3-2.3-41.7-1.3-1.9-3.8-3.9-5.7-4.6-2.5-.8-16.8-1.2-50.2-1.2-46.7-.1-46.8-.1-46.8-2.2 0-1.1-1.3-3.4-2.9-5l-2.9-2.9H310v-8h67.3c76.5 0 74.5-.2 81.5 7.4 2.9 3.1 4.3 5.8 5.1 9.5.8 3.7 1.1 43.4 1.1 135.1v130H47V301c0-91.7.3-131.4 1.1-135.1.8-3.7 2.2-6.4 5.1-9.5 7-7.6 5-7.4 81.5-7.4H202v8h-27.2l-2.9 2.9c-1.6 1.6-2.9 3.9-2.9 5 0 2.1-.1 2.1-46.7 2.2-33.5 0-47.8.4-50.3 1.2-1.9.7-4.4 2.7-5.7 4.6l-2.3 3.4v113.6c0 110.9.1 113.7 2 116.8 4.1 6.8-11.2 6.3 190 6.3s185.9.5 190-6.3c1.9-3.1 2-5.5 2-66 0-61.4 0-62.7-2-64.7-3-3-8.3-2.7-10.9.6-2.1 2.6-2.1 3.5-2.1 62V398H79V182h99.9l34 35.7c18.7 19.7 35.5 36.8 37.2 38 6.9 4.9 9.4 3.5 27.3-15.4 13.9-14.6 14.7-15.6 14.4-19-.6-6.8-7.9-9.4-12.6-4.4-.9 1-6.5 6.7-12.4 12.8l-10.8 11-10.3-10.6c-5.7-5.8-20.4-21.2-32.8-34.1l-22.4-23.5 10.8-.5c10.4-.5 11-.6 13.3-3.3l2.4-2.8V28h78v68.9zm3 350.3c-.1.7-1.1 3.3-2.3 5.8l-2.2 4.5h-75l-2.2-4.5c-1.2-2.5-2.2-5.1-2.3-5.8 0-.9 9-1.2 42-1.2s42 .3 42 1.2z"/>
    <path d="M191.4 276c-2.6 1-5.4 4.8-5.4 7.1 0 .9.9 2.8 2.1 4.3l2 2.6h131.8l2-2.6c2.7-3.5 2.6-5.7-.3-9.1l-2.4-2.8-63.9-.2c-35.1-.1-64.8.2-65.9.7z"/>
</svg>
