<svg xmlns="http://www.w3.org/2000/svg" viewBox="0 0 512 512"><path d="M347.524 266.144c-.66-1.392-2.072-2.144-3.612-2.144H312v-92.392c0-2.208-2.32-3.608-4.532-3.608H203.572c-2.212 0-3.572 1.4-3.572 3.608V264h-32.364c-1.544 0-2.952.752-3.612 2.144-.664 1.396-.46 2.976.516 4.176l88.14 107.96c.756.928 1.896 1.452 3.096 1.452s2.34-.548 3.096-1.476l88.136-107.936c.976-1.196 1.18-2.78.516-4.176z"/><path d="M221.3 340l29.14 36h10.672l29.136-36z"/><path d="M476.328 340h-155.1l-29.136 36h44.984C348.1 376 356 384.476 356 395.504v8.336c0 11.028-7.9 20.16-18.924 20.16H120.72c-11.028 0-20.72-9.132-20.72-20.16v-8.336c0-11.028 9.692-19.504 20.72-19.504h98.744l-29.14-36H37.032C17.18 340 0 355.944 0 375.796v47.752C0 443.4 17.18 460 37.032 460h439.296C496.18 460 512 443.4 512 423.548v-47.752C512 355.944 496.18 340 476.328 340zM56.656 423.42c-13.096 0-23.752-10.652-23.752-23.752 0-13.092 10.652-23.752 23.752-23.752s23.752 10.656 23.752 23.752c0 13.1-10.656 23.752-23.752 23.752zm328.252-7.54c-8.936 0-16.208-7.268-16.208-16.208s7.268-16.208 16.208-16.208 16.204 7.268 16.204 16.208-7.268 16.208-16.204 16.208zm40 0c-8.936 0-16.204-7.268-16.204-16.208s7.264-16.208 16.204-16.208 16.216 7.268 16.216 16.208-7.28 16.208-16.216 16.208zm40.052 0c-8.936 0-16.208-7.268-16.208-16.208s7.268-16.208 16.208-16.208 16.212 7.268 16.212 16.208-7.272 16.208-16.212 16.208z"/><path d="M200 196h112v36H200z"/><path d="M337.076 280H172.572l29.14 36h108.124l29.312-36.064c-.692.072-1.364.064-2.072.064z"/><path d="M120.72 232H176v-36H37.032C17.18 196 0 212.196 0 232.048V279.8C0 299.648 17.18 316 37.032 316h133.704l-24.796-30.524c-1.348-1.656-2.416-5.476-3.34-5.476h-21.88c-11.028 0-20.72-8.884-20.72-19.912v-8.336c0-11.024 9.692-19.752 20.72-19.752zm-64.064 47.672c-13.096 0-23.752-10.656-23.752-23.752s10.652-23.752 23.752-23.752 23.752 10.652 23.752 23.752c0 13.096-10.656 23.752-23.752 23.752z"/><path d="M476.328 196H336v36h1.076c7.388 0 13.78 3.952 17.248 9.924 6.18 2.496 11.384 7.06 14.472 13.116.5-8.492 7.496-15.3 16.112-15.3 8.936 0 16.204 7.256 16.204 16.196s-7.264 16.2-16.204 16.2c-5.444 0-10.248-2.724-13.188-6.856.608 7.144-1.448 14.524-6.116 20.244L340.816 316h135.512C496.18 316 512 299.648 512 279.796v-47.748C512 212.196 496.18 196 476.328 196zm-51.42 76.128c-8.936 0-16.204-7.268-16.204-16.208s7.264-16.212 16.204-16.212 16.216 7.272 16.216 16.212-7.28 16.208-16.216 16.208zm40.052 0c-8.936 0-16.208-7.268-16.208-16.208s7.268-16.212 16.208-16.212 16.212 7.272 16.212 16.212-7.272 16.208-16.212 16.208z"/><path d="M307.468 168H203.572c-2.212 0-3.572 1.4-3.572 3.608V172h112v-.392c0-2.208-2.32-3.608-4.532-3.608z"/><path d="M476.328 52H37.032C17.18 52 0 68.32 0 88.172v47.748C0 155.772 17.18 172 37.032 172H176v-.392C176 156.172 188.132 144 203.572 144h103.9C322.908 144 336 156.172 336 171.608V172h140.328C496.18 172 512 155.772 512 135.92V88.172C512 68.32 496.18 52 476.328 52zM56.656 135.796c-13.096 0-23.752-10.652-23.752-23.752 0-13.092 10.652-23.752 23.752-23.752s23.752 10.656 23.752 23.752c0 13.1-10.656 23.752-23.752 23.752zM356 116c0 11.048-8.952 20-20 20H120c-11.048 0-20-8.952-20-20v-8c0-11.048 8.952-20 20-20h216c11.048 0 20 8.952 20 20v8zm28.908 12.252c-8.936 0-16.208-7.268-16.208-16.208s7.268-16.208 16.208-16.208 16.204 7.268 16.204 16.208-7.268 16.208-16.204 16.208zm40 0c-8.936 0-16.204-7.268-16.204-16.208s7.264-16.208 16.204-16.208 16.216 7.268 16.216 16.208-7.28 16.208-16.216 16.208zm40.052 0c-8.936 0-16.208-7.268-16.208-16.208s7.268-16.208 16.208-16.208 16.212 7.268 16.212 16.208-7.272 16.208-16.212 16.208z"/></svg>